<svg version="1" xmlns="http://www.w3.org/2000/svg" width="933.333" height="933.333" viewBox="0 0 700.000000 700.000000"><path d="M339.7 58.6c-.1.1-2.9.4-6.2.8-3.3.3-7.1.8-8.5 1.1-1.4.3-4.7 1-7.5 1.5-22.9 4.5-49.7 19-68 36.7-20.9 20.1-34 42.9-41.5 72.1-1.1 4.3-1.3 5.4-3 18.6-.8 6.6-.6 29.8.4 34.2.2 1.2.7 3.9 1 5.9 6 37.8 31.1 75.5 64.4 97 7.1 4.5 26.1 14.1 29.9 15 1 .3 5.5 1.6 10 2.9 19.6 5.9 47.7 7 68.3 2.6 28.6-6.1 53.6-19.6 74-40.1 19.5-19.6 32.1-41.9 38.6-68.4 3.2-13.2 3.9-19.4 3.8-35.5-.1-15.4-1.3-24.5-5.1-38-10.9-39.4-39-73.4-75.8-91.8-12.4-6.2-33.4-12.3-47.1-13.8-5.6-.6-27.2-1.3-27.7-.8zm30 60.5c25.7 6 48.6 24.3 59.2 47.4 9.8 21.1 11.1 43.5 4 65.1-18.1 54.6-83.3 77.2-131 45.4-24.5-16.3-38.8-42.7-39.1-71.8-.1-10.4.2-12.7 2.3-22.2 5.9-26.3 28.1-51.1 54.4-60.8 14.7-5.5 35-6.7 50.2-3.1zM222 408.8C152.1 414.3 95.4 469.5 88.4 539c-.4 4.1-.8 23.5-.8 43-.1 31.5.1 36 1.7 40.1 3.5 9.1 10.2 15.5 19.2 18.2 13.6 4 27.9-2.3 34.2-15.1l2.8-5.7.2-33.5c.2-43.9.6-48.1 5-60.4 4.8-13.4 10.8-23 20.6-33 12.9-13 30-21.9 48-24.7 7.7-1.3 251.8-1.7 258.9-.5 16.1 2.6 27.8 7.4 39.8 16.1 18.9 13.7 32.2 35.8 35 58.1.6 4.4 1.1 23.6 1.3 42.9.2 33.2.3 35.2 2.3 39.6 3.1 6.5 7.5 11.1 14 14.4 4.8 2.5 6.9 2.9 12.8 2.8 12.3-.1 21.2-6 26.4-17.3l2.6-5.5v-36c0-44.8-.7-52.1-6.3-71-15.3-51.4-62.8-93.3-114.6-100.9-2.3-.4-5.2-.9-6.5-1.3-2.4-.6-255.7-1.1-263-.5z"/></svg>